<svg xmlns="http://www.w3.org/2000/svg" xmlns:xlink="http://www.w3.org/1999/xlink" version="1.0" x="0px" y="0px" viewBox="0 0 100 125" enable-background="new 0 0 100 100" xml:space="preserve"><path d="M78.281,26.667c-2.559,0-5.117-0.977-7.07-2.93l-4.141-4.141c-1.81-1.811-4.31-2.931-7.07-2.931H50v-3.332  C50,11.494,48.509,10,46.667,10c-1.843,0-3.334,1.494-3.334,3.334v49.999c0,1.84,1.491,3.334,3.334,3.334  c1.842,0,3.333-1.494,3.333-3.334V50h10c2.761,0,5.261-1.12,7.07-2.93l4.141-4.141c1.953-1.953,4.512-2.93,7.07-2.93H90V26.667  H78.281z M53.333,43.333H50v-6.666h3.333c1.84,0,3.334,1.49,3.334,3.333S55.173,43.333,53.333,43.333z M53.333,30H50v-6.667h3.333  c1.84,0,3.334,1.491,3.334,3.334C56.667,28.509,55.173,30,53.333,30z"/><path d="M23.333,10C21.491,10,20,11.494,20,13.334v3.332H10v6.667h10V30H10v6.667h10v6.666H10V50h10v6.667  C20,58.506,21.491,60,23.333,60c1.843,0,3.334-1.494,3.334-3.333V13.334C26.667,11.494,25.176,10,23.333,10z"/><path d="M35,10c-1.843,0-3.333,1.494-3.333,3.334v52.519c0,7.341-2.858,14.242-8.047,19.434L28.333,90  c6.667-6.667,10-15.41,10-24.147V13.334C38.333,11.494,36.843,10,35,10z"/><text x="0" y="115" fill="#000000" font-size="5px" font-weight="bold" font-family="'Helvetica Neue', Helvetica, Arial-Unicode, Arial, Sans-serif">Created by Danil Polshin</text><text x="0" y="120" fill="#000000" font-size="5px" font-weight="bold" font-family="'Helvetica Neue', Helvetica, Arial-Unicode, Arial, Sans-serif">from the Noun Project</text></svg>