<?xml version="1.0" encoding="UTF-8"?>
<svg xmlns="http://www.w3.org/2000/svg" version="1.1" viewBox="0 0 595.28 841.89">
  <!-- Generator: Adobe Illustrator 30.4.0, SVG Export Plug-In . SVG Version: 2.1.4 Build 226)  -->
  <defs>
    <style>
      .st0 {
        fill: #db7580;
      }

      .st0, .st1, .st2, .st3, .st4 {
        stroke-miterlimit: 10;
      }

      .st0, .st1, .st2, .st4 {
        stroke: #1d1d1b;
        stroke-width: 2px;
      }

      .st2 {
        fill: #fff;
      }

      .st3 {
        fill: #063;
        stroke: #000;
      }

      .st4 {
        fill: #f39200;
      }
    </style>
  </defs>
  <g id="Testa">
    <circle id="testa" class="st4" cx="290.58" cy="470.98" r="251.43"/>
  </g>
  <g id="Ochhi">
    <circle id="Occhi" class="st2" cx="401.94" cy="393.24" r="57.58"/>
    <circle id="Occhi1" data-name="Occhi" class="st2" cx="179.21" cy="393.24" r="57.58"/>
    <circle id="Occhi2" data-name="Occhi" class="st1" cx="202.43" cy="406.91" r="25.06"/>
    <circle id="Occhi3" data-name="Occhi" class="st1" cx="378.72" cy="406.91" r="25.06"/>
  </g>
  <g id="sopracciglia">
    <path d="M136.55,324.08c23.43-11.43,61.84-11.36,85.32,0,0,0,0,1,0,1-5.33.16-16,.32-21.33.33-15.39.23-37.99.08-53.32-.09,0,0-10.67-.24-10.67-.24,0,0,0-1,0-1h0Z"/>
    <path d="M359.28,324.08c23.43-11.43,61.84-11.36,85.32,0,0,0,0,1,0,1-5.33.16-16,.32-21.33.33-15.39.23-37.99.08-53.33-.09,0,0-10.67-.24-10.67-.24v-1h0Z"/>
  </g>
  <g id="bocca">
    <path class="st0" d="M440.53,618c-37.97-23.34-54.52-34.67-97.07-38.62-12.59-1.17-27.45-1.7-45.82-1.7-.94,0-1.86,0-2.78.01-21.21.1-36.34,1.35-48.6,3.62-32.58,6.01-44.88,19.15-97.08,36.69,4.63-21.95,42.79-42.69,97.08-50.94,15.08-2.31,31.4-3.64,48.6-3.77.92-.01,1.85-.01,2.78-.01,16.23,0,31.6,1,45.82,2.83,56.28,7.28,94.57,27.75,97.07,51.89Z"/>
    <path class="st2" d="M294.86,563.29v54h-48.6v-50.23c15.08-2.31,31.4-3.64,48.6-3.77Z"/>
    <path class="st2" d="M343.46,566.11v51.18h-48.6v-54c.92-.01,1.85-.01,2.78-.01,16.23,0,31.6,1,45.82,2.83Z"/>
  </g>
  <g id="Capelli">
    <path class="st3" d="M291.61,207.56c1.86,3.84,3.96,7.61,6.28,11.32l-.85.85c-3.78-2.38-7.23-5.31-10.31-8.63-.13-.13-.25-.26-.36-.39-.12-.12-.24-.25-.35-.38-2-2.21-3.84-4.58-5.51-7.07-3.09-4.6-5.5-9.33-7.33-14.17-.11-.3-.23-.6-.33-.91-.12-.32-.23-.64-.35-.96-5.76-16.74-4.63-34.65.05-52.49,3.71-14.98,10.06-29.17,18.27-42.14,8.23-12.84,18.21-24.41,29.44-34.39l.85.85c-19.43,22.14-34.01,48.65-39.17,77.68-1.64,9.33-1.74,18.77-1.02,28.15.02.29.04.59.08.88.01.29.04.58.07.87.36,4.14.87,8.27,1.48,12.37,1.55,9.69,4.45,18.83,8.61,27.61.07.16.15.33.22.49.08.15.15.31.23.46Z"/>
    <path class="st3" d="M290.58,204.83c1.99-3.58,7.87-14.12,10.87-17.66,2.36-2.79,4.85-5.3,7.37-7.49,10.05-8.75,29.35-6.72,29.35-6.72,0,0-1.82,19.82-13.68,33.79-6.21,7.32-19.48,9.34-25.66,12.04-2.05.89-8.3-13.87-8.25-13.95Z"/>
  </g>
</svg>