<?xml version="1.0" encoding="UTF-8"?>
<svg xmlns="http://www.w3.org/2000/svg" version="1.1" xmlns:xlink="http://www.w3.org/1999/xlink" viewBox="0 0 595.28 841.89">
  <!-- Generator: Adobe Illustrator 30.4.0, SVG Export Plug-In . SVG Version: 2.1.4 Build 226)  -->
  <defs>
    <style>
      .st0 {
        fill: url(#Sfumatura_senza_nome_8);
      }

      .st0, .st1, .st2, .st3 {
        stroke: #1d1d1b;
        stroke-width: 2px;
      }

      .st0, .st1, .st2, .st3, .st4 {
        stroke-miterlimit: 10;
      }

      .st1 {
        fill: #db7580;
      }

      .st3 {
        fill: #fff;
      }

      .st4 {
        fill: #063;
        stroke: #000;
      }
    </style>
    <linearGradient id="Sfumatura_senza_nome_8" data-name="Sfumatura senza nome 8" x1="146.7" y1="595.37" x2="527.1" y2="266.49" gradientUnits="userSpaceOnUse">
      <stop offset="0" stop-color="#f39200"/>
      <stop offset=".38" stop-color="#f28f00"/>
      <stop offset=".58" stop-color="#f18702"/>
      <stop offset=".75" stop-color="#ef7904"/>
      <stop offset=".9" stop-color="#ec6608"/>
      <stop offset="1" stop-color="#e9530d"/>
    </linearGradient>
  </defs>
  <g id="Testa">
    <circle id="testa" class="st0" cx="290.58" cy="470.98" r="251.43"/>
  </g>
  <g id="Ochhi">
    <circle id="Occhi" class="st3" cx="401.94" cy="393.24" r="57.58"/>
    <circle id="Occhi1" data-name="Occhi" class="st3" cx="179.21" cy="393.24" r="57.58"/>
    <circle id="Occhi2" data-name="Occhi" class="st2" cx="187.32" cy="418.31" r="25.06"/>
    <circle id="Occhi3" data-name="Occhi" class="st2" cx="401.94" cy="418.31" r="25.06"/>
  </g>
  <g id="sopracciglia">
    <path d="M145.31,317.14c24.97-7.46,62.86-1.15,84.18,13.88,0,0-.16.99-.16.99-5.28-.71-15.84-2.29-21.1-3.14-15.22-2.27-37.5-6.11-52.6-8.76,0,0-10.48-1.98-10.48-1.98l.16-.99h0Z"/>
    <path d="M352.09,328.41c20.44-16.18,57.97-24.34,83.34-18.26,0,0,.21.98.21.98-5.17,1.29-15.56,3.74-20.76,4.89-14.98,3.52-37.1,8.21-52.11,11.33,0,0-10.47,2.04-10.47,2.04l-.21-.98h0Z"/>
  </g>
  <g id="bocca">
    <ellipse class="st1" cx="290.58" cy="630.8" rx="145.68" ry="69.39"/>
    <polyline class="st3" points="290.58 561.41 290.58 639.76 241.98 639.76 241.98 565.37"/>
    <polyline class="st3" points="290.58 561.41 290.58 639.76 339.18 639.76 339.18 565.37"/>
  </g>
  <g id="Capelli">
    <path class="st4" d="M291.61,207.56c1.86,3.84,3.96,7.61,6.28,11.32l-.85.85c-3.78-2.38-7.23-5.31-10.31-8.63-.13-.13-.25-.26-.36-.39-.12-.12-.24-.25-.35-.38-2-2.21-3.84-4.58-5.51-7.07-3.09-4.6-5.5-9.33-7.33-14.17-.11-.3-.23-.6-.33-.91-.12-.32-.23-.64-.35-.96-5.76-16.74-4.63-34.65.05-52.49,3.71-14.98,10.06-29.17,18.27-42.14,8.23-12.84,18.21-24.41,29.44-34.39l.85.85c-19.43,22.14-34.01,48.65-39.17,77.68-1.64,9.33-1.74,18.77-1.02,28.15.02.29.04.59.08.88.01.29.04.58.07.87.36,4.14.87,8.27,1.48,12.37,1.55,9.69,4.45,18.83,8.61,27.61.07.16.15.33.22.49.08.15.15.31.23.46Z"/>
    <path class="st4" d="M290.58,204.83c1.99-3.58,7.87-14.12,10.87-17.66,2.36-2.79,4.85-5.3,7.37-7.49,10.05-8.75,29.35-6.72,29.35-6.72,0,0-1.82,19.82-13.68,33.79-6.21,7.32-19.48,9.34-25.66,12.04-2.05.89-8.3-13.87-8.25-13.95Z"/>
  </g>
</svg>