<svg xmlns="http://www.w3.org/2000/svg" viewBox="0 0 100 125" x="0px" y="0px"><path d="M64.46,64.24c-1.55-.68-3.14,.15-3.98,2.06-.26,.6-.44,1.25-.78,1.8-1.98,3.22-4.1,6.38-7.8,7.8-5.32,2.03-10.33,1.02-14.98-2.09-1.79-1.2-2.9-2.81-3.34-5-.22-1.13-.88-2.23-1.56-3.19-.58-.82-1.48-1.61-2.64-1.07-1.15,.53-1.86,1.39-1.9,2.84-.13,4.45,3.33,10.29,7.41,12.15,3.62,1.65,7.42,2.62,11.42,2.63,.56,0,1.13,.05,1.69,0,3.47-.37,7.07-.69,9.79-3.05,2.38-2.08,4.38-4.62,6.41-7.07,.82-.99,1.39-2.24,1.9-3.44,.62-1.48-.33-3.77-1.65-4.35Z"/><path d="M49.72,58.53c0,.56-.09,1.14,.02,1.67,.27,1.29,1.21,1.8,2.46,1.83,1.22,.03,2.59,.19,2.99-1.36,.54-2.07,1-4.17,1.3-6.29,.21-1.48-1.12-3.09-2.43-3.32-1.61-.28-2.8,.48-3.31,2.27l-1.03,5.19Z"/><path d="M40.36,61.79c1.49,.15,2.74-.39,2.95-1.53,.36-1.92,.63-3.87,.71-5.82,.06-1.47-1.42-3.04-2.65-3.2-1.51-.18-2.56,.67-3.03,2.59-.31,1.26-.49,2.56-.67,3.5,0,.92-.07,1.49,.01,2.03,.19,1.32,1.29,2.29,2.68,2.42Z"/><path d="M87.31,52.25c-.1-1.71-.53-3.57-1.25-5.37-1.99-5-5.64-9.44-10.86-13.19-7.04-5.06-14.43-7.86-21.97-8.32-.44-.03-.88-.12-1.3-.21-.19-.04-.38-.08-.57-.11l-.24-.04,.04-.25c.46-3.26,3.26-6.43,6.12-6.92l.21-.04,.48,1.32c.31,.84,.61,1.69,.91,2.54,.5,1.43,1.59,2.24,3.16,2.36,3.52,.27,6.33-1,8.36-3.76,1.04-1.41,1.12-2.94,.22-4.18-.79-1.1-1.92-2.01-3.01-2.89l-.35-.28c-.38-.31-.86-.52-1.47-.79-.34-.15-.71-.31-1.13-.52l-.51-.25,.53-.22c.35-.15,.65-.27,.9-.38,.49-.21,.85-.37,1.22-.48,.86-.26,1.24-.87,1.2-1.91-.05-1.2-1.46-2.53-2.75-2.58-.09,0-.17,0-.26,0-2.03,0-3.77,1.03-5.16,3.06-1.22,1.79-2.8,2.76-4.32,3.55-5.18,2.69-8.39,6.12-9.81,10.48-.71,2.17-1.86,3.13-3.96,3.3-.56,.05-1.13,.22-1.68,.38l-1.21,.36c-3.81,1.11-7.75,2.26-10.8,5.05l-.92,.83c-2.1,1.9-4.27,3.87-6.03,6.09l-.27,.35c-2.29,2.9-4.66,5.89-5.86,9.23-2.12,5.9-2.74,12.01-1.85,18.15,1.24,8.56,5.63,15.67,13.42,21.75,3.38,2.64,7.52,4.19,13.42,5.04,5.7,.82,11.3,.36,16.5-.26,6.06-.73,10.54-2.47,14.09-5.5,3.88-3.31,6.85-6.12,9.36-8.87,1.63-1.78,2.77-4.1,3.87-6.33,2.85-5.79,4-12.38,3.54-20.2ZM62.86,16.76c.48-.37,.95-.5,1.4-.41,.5,.11,.93,.48,1.28,1.12l.08,.14-.1,.13-.21-.15,.19,.17c-.39,.54-.79,1.09-1.39,1.18-.05,0-.1,.01-.15,.01-.31,0-.62-.13-.96-.39-.29-.23-.37-.83-.36-1.15,0-.33,.07-.55,.22-.66Zm14.67,56.39c-2.99,4.53-6.65,8.37-10.87,11.39-3.14,2.25-6.67,3.62-10.51,4.09-2.75,.33-5.68,.6-8.7,.6-4.56,0-9.32-.61-13.92-2.53-8.8-3.67-14.02-10.72-15.09-20.4-.32-2.94-.33-6.17-.03-10.17,.24-3.18,1.4-6.4,3.53-9.83,2.6-4.19,6.21-7.63,9.39-10.53,2.93-2.67,6.67-3.8,10.29-4.89l.42-.13c.43-.13,.9-.1,1.43-.07,.27,.02,.56,.03,.89,.03h.24l.02,.24c.04,.48,.06,.94,.09,1.38,.05,.95,.11,1.84,.24,2.71,.22,1.41,.5,2.51,.88,3.45,.3,.75,.91,1.32,1.71,1.61,.87,.31,1.83,.23,2.63-.21,.7-.38,.63-.84,.45-1.61-.03-.11-.05-.22-.07-.32-.06-.32-.13-.64-.2-.97-.2-.95-.41-1.93-.51-2.91-.08-.89-.07-1.81-.05-2.79,0-.46,.02-.95,.02-1.46v-.26h.26c.56,0,1.1-.02,1.63-.03,1.12-.03,2.19-.06,3.25,.06,10.4,1.2,18.75,6.32,25.53,15.66,1.38,1.9,2.1,4.36,2.17,7.33,.18,8.47-1.44,15.01-5.1,20.56Z"/><text x="0" y="115" fill="#000000" font-size="5px" font-weight="bold" font-family="'Helvetica Neue', Helvetica, Arial-Unicode, Arial, Sans-serif">Created by iconic</text><text x="0" y="120" fill="#000000" font-size="5px" font-weight="bold" font-family="'Helvetica Neue', Helvetica, Arial-Unicode, Arial, Sans-serif">from the Noun Project</text></svg>