<svg xmlns="http://www.w3.org/2000/svg" version="1.1" viewBox="-5.0 -10.0 110.0 135.0">
 <path d="m68.672 2c1.6562 0 3 1.3438 3 3s-1.3438 3-3 3-3-1.3438-3-3 1.3438-3 3-3zm26.516 26.516c1.6562 0 3 1.3438 3 3s-1.3438 3-3 3-3-1.3438-3-3 1.3438-3 3-3zm-21.375-5.1406h-69c-1.6562 0-3 1.3438-3 3v27c0 1.6562 1.3438 3 3 3h12c1.6562 0 3-1.3438 3-3v-6h7.5v32.625h-6c-1.6562 0-3 1.3438-3 3v12c0 1.6562 1.3438 3 3 3h36c1.6562 0 3-1.3438 3-3v-12c0-1.6562-1.3438-3-3-3h-6v-32.625h7.5v6c0 1.6562 1.3438 3 3 3h12c1.6562 0 3-1.3438 3-3v-27c0-1.6562-1.3438-3-3-3zm-3 27h-6v-6c0-1.6562-1.3438-3-3-3h-13.5c-1.6562 0-3 1.3438-3 3v38.625c0 1.6562 1.3438 3 3 3h6v6h-30v-6h6c1.6562 0 3-1.3438 3-3v-38.625c0-1.6562-1.3438-3-3-3h-13.5c-1.6562 0-3 1.3438-3 3v6h-6v-21h63zm27.375-36.375c0-1.0898-0.59375-2.0938-1.5469-2.625-3.293-1.8242-6.0078-4.5391-7.832-7.832-0.80469-1.4492-2.6289-1.9727-4.0781-1.168-0.49219 0.27344-0.89453 0.67578-1.168 1.168-1.8242 3.293-4.5391 6.0078-7.832 7.832-1.4492 0.80469-1.9727 2.6289-1.1719 4.0781 0.27344 0.49219 0.67969 0.89844 1.1719 1.1719 3.293 1.8242 6.0078 4.5391 7.832 7.832 0.80469 1.4492 2.6289 1.9727 4.0781 1.168 0.49219-0.27344 0.89453-0.67578 1.168-1.168 1.8242-3.293 4.5391-6.0078 7.832-7.832 0.95703-0.52734 1.5469-1.5352 1.5469-2.625zm-12 3.6758c-1.1016-1.3438-2.332-2.5742-3.6758-3.6758 1.3438-1.1016 2.5742-2.332 3.6758-3.6758 1.0977 1.3438 2.332 2.5742 3.6758 3.6758-1.3438 1.0977-2.5781 2.332-3.6758 3.6758z"/>
<text x="0.0" y="117.5" font-size="5.0" font-weight="bold" font-family="Arbeit Regular, Helvetica, Arial-Unicode, Arial, Sans-serif" fill="#000000">Created by Side Project</text><text x="0.0" y="122.5" font-size="5.0" font-weight="bold" font-family="Arbeit Regular, Helvetica, Arial-Unicode, Arial, Sans-serif" fill="#000000">from Noun Project</text></svg>