<svg xmlns="http://www.w3.org/2000/svg" version="1.1" viewBox="-5.0 -10.0 110.0 135.0">
 <path d="m18.633 41.504c0.95703-3.5312 2.4922-6.8242 4.5039-9.7734-5.4062-6.832-13.766-11.23-23.137-11.23v9c8.2695 0 15.398 4.9336 18.633 12.004zm10.867 8.4961c0-8.2695 4.9336-15.398 12.004-18.633-3.5312-0.95703-6.8242-2.4922-9.7734-4.5039-6.832 5.4062-11.23 13.766-11.23 23.137 0 11.305-9.1953 20.5-20.5 20.5v9c16.266 0 29.5-13.234 29.5-29.5zm8.3516 7.0156c1.2969 2.25 3.6562 3.5 6.0781 3.5039 1.2109 2.0977 3.4766 3.5117 6.0703 3.5117 2.5977 0 4.8594-1.4141 6.0703-3.5117 2.4219 0 4.7812-1.2539 6.0781-3.5039 1.2969-2.25 1.2031-4.9141-0.007813-7.0156 1.2109-2.0977 1.3047-4.7656 0.007813-7.0156-1.2969-2.25-3.6562-3.5-6.0781-3.5039-1.2109-2.0977-3.4766-3.5117-6.0703-3.5117-2.5977 0-4.8594 1.4141-6.0703 3.5117-2.4219 0-4.7812 1.2539-6.0781 3.5039-1.2969 2.25-1.2031 4.9141 0.007813 7.0156-1.2109 2.0977-1.3047 4.7656-0.007813 7.0156zm-31.781 32.469c-1.2109-2.0977-3.4766-3.5117-6.0703-3.5117v8.418c3.1016 0 5.6133 2.5117 5.6133 5.6133h6.5312c1.2109-2.0977 1.3047-4.7656 0.007813-7.0156s-3.6562-3.5-6.0781-3.5039zm93.93 4.9023v-8.418c-2.5977 0-4.8594 1.4141-6.0703 3.5117-2.4219 0-4.7812 1.2539-6.0781 3.5039-1.2969 2.25-1.2031 4.9141 0.007813 7.0156h6.5312c0-3.1016 2.5117-5.6133 5.6133-5.6133zm-20.5-44.387c0-11.305 9.1953-20.5 20.5-20.5v-9c-16.266 0-29.5 13.234-29.5 29.5 0 8.2695-4.9336 15.398-12.004 18.633 3.5312 0.95703 6.8242 2.4922 9.7734 4.5039 6.832-5.4062 11.23-13.766 11.23-23.137zm-79.5-44.387v8.418c2.5977 0 4.8594-1.4141 6.0703-3.5117 2.4219 0 4.7812-1.2539 6.0781-3.5039 1.2969-2.25 1.2031-4.9141-0.007813-7.0156h-6.5312c0 3.1016-2.5117 5.6133-5.6133 5.6133zm12.148 37.371c-1.2969-2.25-3.6562-3.5-6.0781-3.5039-1.2109-2.0977-3.4766-3.5117-6.0703-3.5117v28.059c2.5977 0 4.8594-1.4141 6.0703-3.5117 2.4219 0 4.7812-1.2539 6.0781-3.5039 1.2969-2.25 1.2031-4.9141-0.007813-7.0156 1.2109-2.0977 1.3047-4.7656 0.007813-7.0156zm46.348-24.352c3.5312 0.95703 6.8242 2.4922 9.7734 4.5039 6.832-5.4062 11.23-13.766 11.23-23.137h-9c0 8.2695-4.9336 15.398-12.004 18.633zm-2.4258 70.852c-1.2109-2.0977-3.4766-3.5117-6.0703-3.5117-2.5977 0-4.8594 1.4141-6.0703 3.5117-2.4219 0-4.7812 1.2539-6.0781 3.5039-1.2969 2.25-1.2031 4.9141 0.007813 7.0156h24.289c1.2109-2.0977 1.3047-4.7656 0.007812-7.0156s-3.6562-3.5-6.0781-3.5039zm-14.566-8.1172c-3.5312-0.95703-6.8242-2.4922-9.7734-4.5039-6.832 5.4062-11.23 13.766-11.23 23.137h9c0-8.2695 4.9336-15.398 12.004-18.633zm8.4961-10.867c-8.2695 0-15.398-4.9336-18.633-12.004-0.95703 3.5312-2.4922 6.8242-4.5039 9.7734 5.4062 6.832 13.766 11.23 23.137 11.23 11.305 0 20.5 9.1953 20.5 20.5h9c0-16.266-13.234-29.5-29.5-29.5zm0-41c8.2695 0 15.398 4.9336 18.633 12.004 0.95703-3.5312 2.4922-6.8242 4.5039-9.7734-5.4062-6.832-13.766-11.23-23.137-11.23-11.305 0-20.5-9.1953-20.5-20.5h-9c0 16.266 13.234 29.5 29.5 29.5zm-6.0703-18.984c1.2109 2.0977 3.4766 3.5117 6.0703 3.5117 2.5977 0 4.8594-1.4141 6.0703-3.5117 2.4219 0 4.7812-1.2539 6.0781-3.5039 1.2969-2.25 1.2031-4.9141-0.007813-7.0156h-24.289c-1.2109 2.0977-1.3047 4.7656-0.007812 7.0156s3.6562 3.5 6.0781 3.5039zm50 0c1.2109 2.0977 3.4766 3.5117 6.0703 3.5117v-8.4141c-3.1016 0-5.6133-2.5117-5.6133-5.6133h-6.5312c-1.2109 2.0977-1.3047 4.7656-0.007813 7.0156s3.6562 3.5 6.0781 3.5039zm-6.0781 46.5c1.2969 2.25 3.6562 3.5 6.0781 3.5039 1.2109 2.0977 3.4766 3.5117 6.0703 3.5117v-28.059c-2.5977 0-4.8594 1.4141-6.0703 3.5117-2.4219 0-4.7812 1.2539-6.0781 3.5039-1.2969 2.25-1.2031 4.9141 0.007813 7.0156-1.2109 2.0977-1.3047 4.7656-0.007813 7.0156zm12.148 22.484v-9c-8.2695 0-15.398-4.9336-18.633-12.004-0.95703 3.5312-2.4922 6.8242-4.5039 9.7734 5.4062 6.832 13.766 11.23 23.137 11.23z"/>
<text x="0.0" y="117.5" font-size="5.0" font-weight="bold" font-family="Arbeit Regular, Helvetica, Arial-Unicode, Arial, Sans-serif" fill="#000000">Created by Neil</text><text x="0.0" y="122.5" font-size="5.0" font-weight="bold" font-family="Arbeit Regular, Helvetica, Arial-Unicode, Arial, Sans-serif" fill="#000000">from Noun Project</text></svg>